<svg width="21" height="21" viewBox="0 0 21 21" fill="none" xmlns="http://www.w3.org/2000/svg">
<g clip-path="url(#clip0_1_158)">
<path d="M16.5016 10.5236C16.0287 10.5236 15.6465 10.9067 15.6465 11.3786V18.2194C15.6465 18.6906 15.2634 19.0745 14.7915 19.0745H2.82005C2.34799 19.0745 1.96501 18.6906 1.96501 18.2194V6.24803C1.96501 5.7769 2.34799 5.39299 2.82005 5.39299H9.66088C10.1337 5.39299 10.5159 5.00985 10.5159 4.53794C10.5159 4.06587 10.1337 3.68274 9.66088 3.68274H2.82005C1.40573 3.68274 0.254761 4.83371 0.254761 6.24803V18.2194C0.254761 19.6338 1.40573 20.7847 2.82005 20.7847H14.7915C16.2058 20.7847 17.3568 19.6338 17.3568 18.2194V11.3786C17.3568 10.9058 16.9744 10.5236 16.5016 10.5236Z" fill="#363F72"/>
<path d="M8.27208 9.74462C8.21227 9.80443 8.17203 9.88052 8.15497 9.96256L7.55044 12.9863C7.52225 13.1264 7.56672 13.271 7.66755 13.3727C7.74882 13.454 7.85826 13.4975 7.97037 13.4975C7.99761 13.4975 8.02595 13.495 8.05413 13.4891L11.0769 12.8845C11.1607 12.8673 11.2368 12.8272 11.2958 12.7673L18.0613 6.00174L15.0385 2.9791L8.27208 9.74462Z" fill="#363F72"/>
<path d="M20.1511 0.888345C19.3175 0.0545932 17.9613 0.0545932 17.1283 0.888345L15.9449 2.07172L18.9677 5.09452L20.1511 3.91099C20.5548 3.50828 20.7771 2.97124 20.7771 2.40006C20.7771 1.82888 20.5548 1.29183 20.1511 0.888345Z" fill="#363F72"/>
</g>
<defs>
<clipPath id="clip0_1_158">
<rect width="20.5223" height="20.5223" fill="white" transform="translate(0.254761 0.2229)"/>
</clipPath>
</defs>
</svg>
