<svg width="20" height="21" viewBox="0 0 20 21" fill="none" xmlns="http://www.w3.org/2000/svg">
<g clip-path="url(#clip0_1_174)">
<path d="M15.7174 19.1975C15.6949 19.7349 15.2527 20.1589 14.715 20.1589H5.34881C4.81108 20.1589 4.36891 19.7349 4.34641 19.1975L3.67754 5.07748H16.3863L15.7174 19.1975ZM7.91317 8.58466C7.91317 8.35966 7.73074 8.17718 7.50565 8.17718H6.85386C6.62892 8.17718 6.44634 8.35962 6.44634 8.58466V16.6518C6.44634 16.8768 6.62877 17.0592 6.85386 17.0592H7.50565C7.73064 17.0592 7.91317 16.8769 7.91317 16.6518V8.58466ZM10.7653 8.58466C10.7653 8.35966 10.5828 8.17718 10.3578 8.17718H9.70602C9.48108 8.17718 9.29855 8.35962 9.29855 8.58466V16.6518C9.29855 16.8768 9.48093 17.0592 9.70602 17.0592H10.3578C10.5828 17.0592 10.7653 16.8769 10.7653 16.6518V8.58466ZM13.6175 8.58466C13.6175 8.35966 13.4351 8.17718 13.21 8.17718H12.5582C12.3332 8.17718 12.1507 8.35962 12.1507 8.58466V16.6518C12.1507 16.8768 12.3331 17.0592 12.5582 17.0592H13.21C13.435 17.0592 13.6175 16.8769 13.6175 16.6518V8.58466Z" fill="#363F72"/>
<path d="M3.23224 1.2499H7.55318V0.433006C7.55318 0.316996 7.64723 0.2229 7.76329 0.2229H12.3007C12.4167 0.2229 12.5108 0.316996 12.5108 0.433006V1.24985H16.8318C17.1795 1.24985 17.4614 1.53175 17.4614 1.87949V3.8574H2.60265V1.87953C2.60265 1.5318 2.8845 1.2499 3.23224 1.2499Z" fill="#363F72"/>
</g>
<defs>
<clipPath id="clip0_1_174">
<rect width="19.936" height="19.936" fill="white" transform="matrix(-1 0 0 1 20 0.2229)"/>
</clipPath>
</defs>
</svg>
