<svg width="18" height="18" viewBox="0 0 18 18" fill="none" xmlns="http://www.w3.org/2000/svg">
<path d="M15.8673 15.2385L12.2527 11.6816C13.1993 10.6532 13.7809 9.29317 13.7809 7.79655C13.7804 4.595 11.1434 2 7.8902 2C4.63702 2 2 4.595 2 7.79655C2 10.9981 4.63702 13.5931 7.8902 13.5931C9.2958 13.5931 10.585 13.1069 11.5976 12.2986L15.2263 15.8695C15.4031 16.0437 15.6901 16.0437 15.8669 15.8695C16.0441 15.6954 16.0441 15.4127 15.8673 15.2385ZM7.8902 12.7013C5.13766 12.7013 2.90629 10.5054 2.90629 7.79655C2.90629 5.08774 5.13766 2.89183 7.8902 2.89183C10.6428 2.89183 12.8741 5.08774 12.8741 7.79655C12.8741 10.5054 10.6428 12.7013 7.8902 12.7013Z" fill="#363F72"/>
</svg>
